Coordinates
version=1
nRows=13
nColumns=36
inDegrees=yes

Units are S.I. units (second, meters, Newtons, ...)
If the header above contains a line with 'inDegrees', this indicates whether rotational values are in degrees (yes) or radians (no).

endheader
time	pelvis_tilt	pelvis_list	pelvis_rotation	pelvis_tx	pelvis_ty	pelvis_tz	hip_flexion_r	hip_adduction_r	hip_rotation_r	knee_angle_r	knee_angle_r_beta	ankle_angle_r	subtalar_angle_r	mtp_angle_r	hip_flexion_l	hip_adduction_l	hip_rotation_l	knee_angle_l	knee_angle_l_beta	ankle_angle_l	subtalar_angle_l	mtp_angle_l	lumbar_extension	lumbar_bending	lumbar_rotation	arm_flex_r	arm_add_r	arm_rot_r	elbow_flex_r	pro_sup_r	arm_flex_l	arm_add_l	arm_rot_l	elbow_flex_l	pro_sup_l
      1.95000000	     -3.09198610	     -2.55617842	     -4.46436005	     -0.02600002	      1.25012205	      0.06838806	      3.53614794	      4.42641873	      2.59137217	      0.81272201	      0.01418468	      3.50699767	    -11.99412018	     -7.49999987	      3.52694525	     -4.00244240	     -5.44004959	      0.21293375	      0.00371640	     10.31973346	     -4.95171178	     -7.49999987	      1.23275626	      4.50044404	     -0.55466764	      4.14312619	     -6.49561431	     14.02750111	     23.41960114	     68.98528099	      1.17863492	     -6.08613071	     16.64742328	     25.86197951	     63.72408155
      1.96666670	     -3.01405813	     -2.52278772	     -4.33055515	     -0.02608658	      1.25103889	      0.06849951	      3.47453532	      4.39945423	      2.28664462	      0.77701503	      0.01356147	      3.86400977	    -11.19648318	     -7.49999987	      3.49400229	     -3.94853012	     -5.16167563	      0.21135548	      0.00368885	     10.10951973	     -5.14948506	     -7.49999987	      1.07770934	      4.41790892	     -0.63673449	      4.07770682	     -6.44824468	     13.70947599	     23.74173911	     68.39447788	      1.14368396	     -6.14031082	     16.36317369	     26.08683102	     63.44174667
      1.98333330	     -3.15374815	     -2.46156393	     -4.34556988	     -0.02604966	      1.24611270	      0.06779936	      3.62547075	      4.31119846	      2.47829850	      0.78190662	      0.01364684	      3.65005124	    -11.62998253	     -7.49999987	      3.65450091	     -3.84702547	     -5.32948531	      0.21333918	      0.00372347	     10.31969282	     -4.61493157	     -7.49999987	      1.31493547	      4.37723115	     -0.56296086	      4.06163863	     -6.45344356	     13.80727732	     23.53173362	     68.72626842	      1.17757983	     -6.11866302	     16.54524585	     25.92232761	     63.62741116
      2.00000000	     -2.97986287	     -2.49154545	     -4.35051074	     -0.02648102	      1.24542597	      0.06868311	      3.45834120	      4.32029892	      2.41655722	      0.81848324	      0.01428523	      3.92112355	    -11.31356367	     -7.49999987	      3.46007619	     -3.83732350	     -5.33609929	      0.21245325	      0.00370801	     10.48034783	     -4.42174169	     -7.49999987	      0.98345284	      4.37919986	     -0.45514118	      3.96691789	     -6.48041752	     13.54956594	     24.07673066	     67.91527388	      1.14982339	     -6.13971387	     16.28621429	     26.38772730	     63.22487621
      2.01666670	     -2.95569752	     -2.50681999	     -4.25394875	     -0.02439527	      1.24984263	      0.06779024	      3.41257089	      4.32569755	      2.45853449	      0.82551181	      0.01440790	      4.07380063	    -11.26464648	     -7.49999987	      3.44043598	     -3.84324387	     -4.99577242	      0.21362119	      0.00372839	     10.37613452	     -4.65194149	     -7.49999987	      0.98914891	      4.37848976	     -0.57734498	      3.93489257	     -6.46238933	     13.54019238	     24.11305456	     67.83685741	      1.09437826	     -6.17669684	     16.31185289	     26.35890557	     63.19189590
      2.03333330	     -2.89624225	     -2.47786300	     -4.31858146	     -0.02486359	      1.24720693	      0.06741724	      3.37464983	      4.28570945	      2.56716796	      0.86766946	      0.01514369	      4.25516237	    -11.58829660	     -7.49999987	      3.34026243	     -3.79392291	     -5.21101301	      0.21650146	      0.00377866	     10.47659159	     -4.24042287	     -7.49999987	      1.01109555	      4.35286544	     -0.47537582	      4.03502354	     -6.40827034	     13.65404041	     23.73530400	     67.83034683	      1.15521187	     -6.19691729	     16.38738456	     26.03711723	     63.18637548
      2.05000000	     -2.97388410	     -2.50224486	     -4.25051846	     -0.02574337	      1.25081518	      0.06768911	      3.45434908	      4.29761088	      2.51975131	      0.89822421	      0.01567697	      4.11451049	    -11.49088722	     -7.49999987	      3.44653949	     -3.82149339	     -4.98738863	      0.21604526	      0.00377070	     10.31262419	     -4.49034477	     -7.49999987	      1.05983074	      4.37685495	     -0.54202438	      3.89127075	     -6.46299347	     13.63002880	     24.07989817	     67.67015963	      1.11042221	     -6.19239842	     16.36989365	     26.34710196	     63.12117106
      2.06666670	     -2.72531987	     -2.61576554	     -4.26219499	     -0.02535631	      1.24539413	      0.06937332	      3.13773204	      4.42954170	      2.52430503	      0.93944051	      0.01639633	      4.18152090	    -11.63334519	     -7.49999987	      3.17021439	     -3.94052384	     -5.02945747	      0.21718771	      0.00379064	     10.52119121	     -4.62267604	     -7.49999987	      0.68432718	      4.46198941	     -0.54798218	      3.84392224	     -6.49545796	     13.51337842	     24.50682758	     66.92048444	      1.01792354	     -6.25665824	     16.16864453	     26.76015993	     62.76371628
      2.08333330	     -2.76695410	     -2.60486349	     -4.25680478	     -0.02419068	      1.24918930	      0.06731824	      3.18820830	      4.40617524	      2.47705255	      1.04449618	      0.01822990	      3.85531385	    -12.27533689	     -7.49999987	      3.21476227	     -3.95461980	     -5.12822394	      0.21681905	      0.00378421	     10.52672847	     -4.40328385	     -7.49999987	      0.85573554	      4.43586411	     -0.52094654	      3.86666237	     -6.45034870	     13.74207221	     24.06945107	     67.14457651	      1.08820513	     -6.20523124	     16.32296885	     26.35513180	     62.87316553
      2.10000000	     -2.72246096	     -2.61065825	     -4.22757434	     -0.02463259	      1.24908308	      0.06719696	      3.12910516	      4.38514978	      2.29012762	      1.06210966	      0.01853731	      3.84238094	    -12.25592758	     -7.49999987	      3.16991338	     -3.94751520	     -5.13630743	      0.21742614	      0.00379480	     10.47191842	     -4.48679532	     -7.49999987	      0.84681561	      4.43584923	     -0.58307000	      3.90087569	     -6.43789127	     13.83790062	     23.91957093	     67.24252987	      1.11528417	     -6.21011936	     16.39809996	     26.22185221	     62.92220746
      2.11666670	     -2.96036952	     -2.65619604	     -4.16220522	     -0.02392606	      1.24396098	      0.06775934	      3.34216386	      4.45903309	      2.15096673	      1.14744895	      0.02002676	      3.92164878	    -12.17579314	     -7.49999987	      3.40885679	     -4.02345098	     -4.86405852	      0.21967305	      0.00383402	     10.41896402	     -5.02582388	     -7.49999987	      1.23999937	      4.45738566	     -0.67194592	      3.63594735	     -6.52117261	     13.87312598	     24.24886774	     67.23619450	      0.87363513	     -6.25082501	     16.42490271	     26.54125416	     62.93126120
      2.13333330	     -2.56351237	     -2.72836371	     -4.20364586	     -0.02458933	      1.24718568	      0.06782091	      2.90026970	      4.51963518	      2.28199410	      1.28042440	      0.02234762	      3.72307026	    -12.74801949	     -7.49999987	      2.95268190	     -4.08684339	     -5.10254401	      0.21842005	      0.00381215	     10.65317708	     -4.85715887	     -7.49999987	      0.72078766	      4.52443022	     -0.63942299	      3.89711721	     -6.49164368	     13.94254466	     23.96342738	     67.29911066	      1.03307523	     -6.17456146	     16.46717898	     26.24044665	     62.95743642
      2.15000000	     -2.63691556	     -2.76481103	     -4.26459579	     -0.02490789	      1.24552191	      0.06780585	      3.00557059	      4.59932996	      2.44947032	      1.35075267	      0.02357508	      3.76833554	    -12.87781786	     -7.49999987	      2.98569934	     -4.13084109	     -5.31982149	      0.22113371	      0.00385951	     10.83776683	     -4.60650085	     -7.49999987	      0.85704465	      4.56387084	     -0.64684317	      3.90177431	     -6.52735749	     13.99137223	     23.87083716	     67.18646956	      1.01887353	     -6.19264776	     16.47905877	     26.18435449	     62.90629278
